<svg width="320" height="320" viewBox="0 0 320 320" fill="none" xmlns="http://www.w3.org/2000/svg">
<path opacity="0.9" d="M160.818 320C66.0997 319.719 -0.607426 243.398 0.004171 157.261C0.579791 75.9748 67.5173 -0.194231 158.811 0.000372089C246.168 0.187768 321.244 67.2249 319.984 163.417C318.79 248.927 247.672 320.072 160.818 320ZM163.221 132.46C164.02 131.905 164.517 131.61 164.948 131.249C171.733 125.584 178.619 120.063 185.26 114.196C191.907 108.397 197.086 101.1 200.37 92.9053C202.443 87.7087 204.688 82.5842 206.594 77.3227C208.803 71.2107 214.264 69.1853 219.546 75.0955C233.994 91.2043 243.866 109.792 250.226 130.37C250.457 131.091 250.708 131.862 250.946 132.612L251.514 132.821C251.727 132.425 251.968 132.044 252.234 131.682C255.81 127.279 258.683 122.348 260.753 117.065C267.948 98.7146 268.272 79.8886 264.746 60.7454C263.723 54.7076 260.459 49.2804 255.608 45.5519C220.935 17.4425 181.634 6.12667 137.448 12.5125C121.263 14.8655 105.612 20.0266 91.1969 27.7638C55.3309 46.9069 31.1069 75.8572 18.5248 114.614C14.553 126.817 12.4304 139.401 11.3295 152.166C11.2432 153.16 11.3295 154.169 11.3295 155.69C11.563 155.38 11.7723 155.052 11.9555 154.71C12.1929 153.989 12.4232 153.268 12.6318 152.548C15.2845 142.973 19.1868 133.79 24.2378 125.238C35.1818 106.657 50.5796 92.545 68.4742 80.9265C82.6417 71.7225 97.8741 64.5653 113.135 57.4299C125.9 51.462 138.995 46.0996 150.083 37.0325C151.162 36.146 153.263 35.8866 154.709 36.1893C158.537 36.9821 159.796 40.8093 158.12 44.6582C156.337 48.4419 154.869 52.3665 153.731 56.392C151.241 66.324 151.407 76.4216 152.443 86.5554C153.95 100.79 157.039 114.811 161.653 128.359C162.113 129.635 162.639 130.911 163.221 132.46V132.46ZM139.441 307.423L139.642 306.911C139.276 306.435 138.923 305.96 138.534 305.47C135.347 301.26 131.721 297.311 129.058 292.792C123.568 283.487 118.546 273.908 113.452 264.38C112.221 262.088 110.761 260.473 108.106 260.019C106.803 259.732 105.53 259.319 104.307 258.787C94.3268 254.974 85.2752 249.417 76.3387 243.651C64.0648 235.889 52.7183 226.746 42.5209 216.399C33.7857 207.577 26.4112 197.501 20.6402 186.502C20.1221 185.5 19.4961 184.556 18.9133 183.583C18.5234 183.901 18.2666 184.354 18.1938 184.852C17.4981 191.256 17.8309 197.732 19.1795 204.031C21.9928 218.446 28.3822 231.333 36.8223 243.218C50.7091 262.772 68.2656 278.355 88.8152 290.557C102.292 298.558 116.517 304.713 132.224 306.803C134.577 307.12 137.016 307.221 139.441 307.423ZM178.706 212.284C178.044 212.514 177.856 212.55 177.691 212.637C177.302 212.853 176.928 213.091 176.554 213.357C167.142 219.46 158.771 227.038 151.759 235.802C143.362 246.26 136.88 257.662 135.16 271.255C134.368 277.533 134.692 283.559 139.319 288.626C144.355 294.118 149.435 299.567 154.026 305.405C156.904 309.081 160.012 308.972 163.711 307.661C164.426 307.402 165.125 307.101 165.804 306.76C171.496 303.963 175.158 299.228 177.936 293.736C183.346 283.069 184.994 271.522 185.469 259.767C185.845 248.693 184.82 237.616 182.418 226.799C181.389 221.978 179.979 217.235 178.706 212.32V212.284ZM35.1314 129.858C34.5198 130.73 34.1457 131.213 33.8291 131.725C28.4532 140.296 24.595 149.732 22.4246 159.618C22.1192 161.086 22.1835 162.607 22.6117 164.043C26.7058 177.637 34.196 189.32 43.3124 200.002C60.4299 220.068 81.1091 235.614 104.379 247.817C105.026 248.155 105.695 248.444 106.839 248.977C105.753 245.481 104.76 242.49 103.882 239.463C101.061 229.767 98.2626 220.063 95.4852 210.352C95.2219 209.304 94.7536 208.318 94.1077 207.452C93.4618 206.586 92.651 205.857 91.7221 205.307C81.1523 199.058 72.2949 190.755 64.1067 181.731C51.2344 167.561 42.6433 150.919 36.297 133.001C35.9733 132.093 35.6207 131.17 35.1314 129.858ZM125.331 262.974L125.921 263.161C129.763 249.95 135.419 237.697 144.118 227.008C152.817 216.32 163.38 207.865 175.273 200.903C172.172 192.002 169.136 183.266 166.063 174.444C165.538 174.639 165.236 174.725 164.97 174.855C149.73 182.466 135.685 191.771 123.849 204.153C118.762 209.473 114.366 215.311 111.617 222.223C111.161 223.367 111.058 224.623 111.322 225.827C114.746 238.22 119.191 250.308 124.612 261.965C124.821 262.322 125.062 262.659 125.331 262.974V262.974ZM106.321 207.973L106.94 208.146C107.541 207.631 108.108 207.077 108.638 206.489C111.322 203.173 113.869 199.742 116.639 196.506C128.663 182.48 143.406 172.181 160.214 164.75C161.775 164.029 162.12 163.402 161.516 161.78C158.933 154.804 156.479 147.791 154.004 140.778C153.896 140.264 153.63 139.796 153.243 139.442C152.855 139.088 152.367 138.864 151.846 138.803C147.377 138.082 143.103 138.889 138.894 140.309C126.274 144.583 115.618 152.122 105.523 160.591C102.853 162.833 101.875 165.694 101.925 169.046C102.117 179.606 103.079 190.137 104.803 200.557C105.292 203.036 105.832 205.501 106.321 207.973ZM92.125 193.558C92.125 192.953 92.125 192.593 92.125 192.239C91.8444 189.01 91.3623 185.753 91.3119 182.545C91.1896 174.149 91.2256 165.752 91.3119 157.355C91.3265 156.768 91.2041 156.185 90.9543 155.653C90.7045 155.121 90.3341 154.655 89.8729 154.292C86.376 150.962 82.6776 147.755 79.6268 144.064C69.7693 132.266 63.97 118.456 60.3076 103.645C60.1349 102.924 59.8831 102.246 59.5881 101.396C59.1764 101.596 58.7859 101.838 58.4225 102.117C53.7024 106.758 48.9823 111.393 44.3269 116.099C44.1355 116.363 44.0019 116.664 43.9349 116.984C43.868 117.303 43.8691 117.633 43.9384 117.951C44.6579 121.043 45.3775 124.143 46.2409 127.184C54.019 153.895 70.1291 174.934 90.8514 192.823C91.2595 193.087 91.685 193.323 92.125 193.53V193.558ZM258.278 271.673C257.866 271.435 257.438 271.225 256.997 271.047C250.306 269.079 243.664 266.931 236.908 265.223C229.713 263.399 222.287 262.578 215.034 264.502C209.422 266.001 204.09 268.502 198.564 270.354C196.406 271.075 195.636 272.387 195.24 274.549C193.175 285.959 189.189 296.597 181.979 305.844C181.728 306.176 181.548 306.565 181.123 307.286C209.734 303.106 236.529 290.729 258.278 271.645V271.673ZM127.914 63.7581L127.497 63.4049C126.605 63.7149 125.705 63.9888 124.835 64.3347C111.998 69.4232 99.7952 75.8163 87.7647 82.5482C82.174 85.6762 76.8279 89.2511 71.3523 92.5882C70.783 92.8641 70.3365 93.3424 70.0997 93.9299C69.863 94.5174 69.8529 95.1721 70.0715 95.7666C70.532 97.5469 70.8414 99.3704 71.2516 101.158C74.5686 115.623 80.2528 128.95 89.9592 140.331C90.6068 141.052 91.2976 141.772 92.3337 142.918C96.8163 112.849 107.357 86.0221 127.914 63.7581ZM288.232 235.297C285.116 233.906 282.296 232.493 279.36 231.362C272.589 228.731 265.689 227.153 258.335 228.789C253.486 229.877 249.313 232.429 245.003 234.735C242.391 236.126 239.556 237.099 236.843 238.339C235.927 238.652 235.088 239.158 234.382 239.823C231.504 243.283 228.698 246.836 225.878 250.368C225.503 250.844 225.158 251.363 224.69 252.083L231.303 253.071C242.815 254.75 253.86 257.95 264.149 263.457C265.545 264.178 266.308 264.07 267.38 262.952C274.043 255.939 280.028 248.308 285.253 240.162C286.195 238.677 287.102 237.164 288.232 235.297ZM308.263 167.099C307.91 167.191 307.563 167.309 307.227 167.453C297.255 172.931 288.966 180.08 283.958 190.582C279.533 199.851 274.41 208.694 267.337 216.255C266.961 216.799 266.633 217.376 266.358 217.977C275.804 218.233 284.983 221.175 292.822 226.461C300.442 214.849 310.069 177.695 308.263 167.121V167.099ZM244.47 169.586C244.235 169.529 243.993 169.5 243.751 169.5C243.505 169.565 243.264 169.649 243.031 169.752C234.814 173.356 226.36 175.806 217.287 175.756C216.926 175.835 216.59 176.001 216.307 176.239C216.025 176.478 215.806 176.782 215.668 177.125C213.212 185.683 209.73 193.912 205.299 201.631C204.666 202.755 204.774 203.404 205.839 204.117C213.099 208.99 221.035 211.671 229.828 211.325C235.102 211.138 237.289 209.336 238.872 204.29C241.36 196.415 243.047 188.309 243.909 180.095C244.233 176.642 244.283 173.104 244.47 169.608V169.586ZM244.895 221.069L245.269 221.365C245.792 221.032 246.292 220.664 246.765 220.262C250.845 216.348 254.889 212.392 258.997 208.478C263.681 204.006 266.846 198.175 268.049 191.807C269.455 185.363 270.495 178.844 271.165 172.282C272.355 159.509 270.868 146.627 266.797 134.464C266.535 133.822 266.24 133.194 265.912 132.583C262.509 137.527 258.803 141.671 254.047 144.792C253.702 145.023 253.594 145.902 253.673 146.428C255.312 156.541 255.877 166.799 255.357 177.031C254.431 191.579 251.115 205.874 245.542 219.34C245.283 219.931 245.132 220.515 244.895 221.091V221.069ZM103.148 148.353L103.731 148.67C110.143 143.079 117.185 138.256 124.712 134.298C132.371 130.264 140.762 127.813 149.385 127.091C147.514 119.523 145.73 112.193 143.859 104.891C143.711 104.628 143.504 104.402 143.254 104.232C143.004 104.062 142.719 103.952 142.42 103.911C140.165 103.576 137.883 103.463 135.606 103.572C128.144 104.351 121.568 107.436 115.682 111.984C112.329 114.571 109.322 117.476 108.35 121.887C107.084 127.588 105.681 133.26 104.501 138.983C103.875 142.075 103.601 145.239 103.162 148.374L103.148 148.353ZM198.586 212.435C196.679 214.597 194.83 216.514 193.197 218.612C192.638 219.383 192.401 220.342 192.535 221.286C194.78 231.931 196.722 242.62 196.852 253.547C196.852 255.298 196.852 257.049 196.852 258.866C206.724 256.062 229.274 231.751 231.727 221.329C225.972 221.824 220.175 221.371 214.567 219.988C208.824 218.493 203.409 215.939 198.6 212.457L198.586 212.435ZM219.452 164.937C219.653 165.01 219.865 165.044 220.078 165.038C227.453 164.526 234.332 162.155 241.067 159.33C243.434 158.328 243.945 157.081 243.499 154.371C242.779 150.047 242.218 145.722 241.275 141.434C238.275 127.891 233.663 114.96 226.353 103.097C225.633 101.951 224.784 100.891 223.921 99.6877C224.036 110.83 224.813 121.714 224.064 132.496C223.316 143.279 221.035 154.09 219.431 164.959L219.452 164.937ZM176.324 135.862C173.395 137.794 170.726 139.632 167.977 141.318C166.812 142.039 166.682 142.76 167.114 143.956C174.156 163.959 181.181 183.968 188.189 203.98C188.428 204.59 188.7 205.187 189.002 205.768C189.333 205.581 189.477 205.545 189.549 205.451C194.157 199.209 197.969 192.415 200.896 185.227C201.097 184.729 200.637 183.742 200.176 183.223C197.636 180.217 194.737 177.457 192.477 174.286C186.663 166.069 182.958 156.793 179.828 147.286C178.626 143.639 177.547 139.934 176.302 135.884L176.324 135.862ZM292.247 90.9376L291.599 91.1395C291.562 91.3779 291.545 91.619 291.549 91.8602C292.75 101.122 294.427 110.355 295.031 119.652C295.556 128.193 295.125 136.821 294.636 145.383C294.333 150.558 293.074 155.676 292.355 160.836C292.225 161.759 292.599 162.753 292.736 163.719C293.64 163.597 294.523 163.355 295.362 162.998C299.564 160.483 303.73 157.953 307.839 155.25C308.133 154.994 308.371 154.679 308.536 154.325C308.7 153.971 308.789 153.587 308.796 153.196C308.839 150.332 308.702 147.467 308.386 144.619C306.421 130.003 302.698 115.678 297.298 101.958C295.823 98.2101 293.923 94.6279 292.225 90.9593L292.247 90.9376ZM205.098 172.592C205.332 172.283 205.528 171.946 205.681 171.59C206.774 167.215 207.897 162.847 208.875 158.443C208.942 157.668 208.713 156.895 208.235 156.281C201.84 147.618 197.033 137.886 194.039 127.537C193.592 126.024 193.182 124.51 192.657 122.651C190.7 124.352 189.06 125.973 187.239 127.292C185.671 128.424 185.57 129.7 185.901 131.401C188.585 145.383 194.535 157.903 202.752 169.442C203.479 170.429 204.241 171.402 205.098 172.592ZM278.604 81.7769H277.82C277.727 83.9824 277.612 86.1879 277.54 88.3934C277.187 99.1254 275.669 109.656 272.122 119.84C271.907 120.481 271.946 121.18 272.229 121.793C276.863 129.988 279.346 138.882 280.914 148.086C281.231 149.931 281.59 151.762 281.929 153.6L282.749 153.506C285.33 129.531 283.93 105.293 278.604 81.7769V81.7769ZM139.923 66.9079L139.312 66.8357C130.565 75.9358 123.359 86.404 117.978 97.8281C125.425 94.1883 133.088 92.062 141.528 92.516C140.981 83.7949 140.456 75.3479 139.923 66.9079ZM211.386 141.326L211.904 141.196C214.186 126.227 214.3 111.006 212.243 96.0045C211.89 96.1199 211.804 96.3577 211.674 96.574C208.4 102.167 205.098 107.746 201.867 113.36C201.558 113.972 201.46 114.669 201.586 115.342C202.877 122.211 205.102 128.871 208.199 135.134C209.228 137.217 210.321 139.264 211.386 141.326Z" fill="white"/>
</svg>